<?xml version="1.0" standalone="no"?>
<!DOCTYPE svg PUBLIC "-//W3C//DTD SVG 1.1//EN" "http://www.w3.org/Graphics/SVG/1.1/DTD/svg11.dtd">
<svg xmlns="http://www.w3.org/2000/svg">
<metadata>Copyright (C) 2019 by original authors @ fontello.com</metadata>
<defs>
<font id="newicons" horiz-adv-x="1000" >
<font-face font-family="newicons" font-weight="400" font-stretch="normal" units-per-em="1000" ascent="850" descent="-150" />
<missing-glyph horiz-adv-x="1000" />
<glyph glyph-name="sinburo" unicode="&#xe801;" d="M500 848c-275 0-498-224-498-498 0-275 224-498 498-498 275 0 498 224 498 498 0 275-223 498-498 498z m0-936c-242 0-438 197-438 438 0 242 197 438 438 438 242 0 438-197 438-438 0-242-196-438-438-438z m370 337l-208-161-74 110c-9 12-5 28 7 36 12 9 28 5 37-7l42-63 165 126c11 9 28 6 36-4 9-11 6-28-5-37z m-357-107h-214c-6 0-12 5-12 12 0 6 5 12 12 12h211c0 6-1 12-1 17 0 14 2 27 4 39h-214c-6 0-12 5-12 12 0 6 5 13 12 13h222c8 20 20 40 36 56h-258c-6 0-12 4-12 12 0 7 5 12 12 12h288c25 17 57 27 90 27s64-10 90-27c1-1 2-1 3-3 3-6 5-7 8-9 3-3 6-5 9-9v268c0 29-24 54-53 54h-457c-29 0-53-25-53-54v-457c0-29 24-53 53-53h280c-5 5-9 11-14 17-14 18-23 38-30 61z m-7 420h202c6 0 12-5 12-12 0-8-6-12-12-12h-202c-6 0-12 4-12 12 0 7 5 12 12 12z m0-79h202c6 0 12-5 12-12s-6-13-12-13h-202c-6 0-12 5-12 13s5 12 12 12z m0-79h202c6 0 12-5 12-13s-6-12-12-12h-202c-6 0-12 5-12 12 0 7 5 13 12 13z m-127 153c27 1 50-22 50-50 0-28-21-50-50-51-28 0-49 22-49 50s21 51 49 51z m-43-111c5 1 11 1 15 1 20 0 39 0 58 0 35 0 59-24 59-59-1-6-2-6-7-6-27 0-55 0-82 0-26 0-53 0-80 0-7 0-7 0-7 7 0 28 17 51 44 57z m177-224h0c0 1 0 2 0 3 0-2 0-2 0-3z m290-57l26 19c0-1 0-1 0-2 0-84-68-152-152-152s-153 67-153 151 69 152 153 152c45 0 86-21 114-52l-18-15c-23 27-59 44-96 44-71 0-128-59-128-129 0-71 57-128 128-128 64 0 118 49 126 112z" horiz-adv-x="1000" />

<glyph glyph-name="sinhistorial" unicode="&#xe802;" d="M209 307l-12 89 41 5-29-94z m113 217l37-11 366 53-3 25c-3 18-20 32-38 29l-475-68c-18-2-32-19-29-38l3-25 86 12c9 18 33 29 53 23z m456-151l-458 141c-18 7-37-4-43-21l-7-25 524-161 7 25c5 17-5 35-23 41z m-535 5l524-161-49-157c-6-17-24-28-43-22l-459 142c-17 6-26 24-22 42l49 156z m34-71c0-1 1-3 3-3l304-94c1 0 4 1 4 2 0 2-1 4-3 4l-304 94c-1 0-4 0-4-3z m-12-37c0-2 1-4 2-4l305-94c1 0 4 1 4 3 0 1-2 3-3 3l-304 94c-2 0-4-1-4-2z m-11-38c0-1 1-4 3-4l304-93c1 0 4 1 4 2 0 1-2 4-3 4l-304 93c-1 0-4 0-4-2z m497 161l-12 80-172-24 184-56z m247-43c0-274-223-498-498-498-274 0-498 223-498 498 0 274 223 498 498 498 275 0 498-223 498-498z m-58 0c0 111-42 212-109 289l-85-86-5 39c0 0-2 17-12 28l60 60c-78 67-178 108-289 108-241 0-438-196-438-438 0-111 41-212 108-289l87 87 63-20-109-108c78-67 178-108 289-108 242 0 438 196 440 438z" horiz-adv-x="1000" />

<glyph glyph-name="50desc" unicode="&#xe803;" d="M500 848c-275 0-498-224-498-498 0-275 224-498 498-498 275 0 498 224 498 498 0 275-223 498-498 498z m0-936c-112 0-214 42-292 112h67c11 0 19 8 19 19v20h20c0 0 25-19 46-19h325c37 0 66 30 66 66 0 16-6 31-16 42 22 11 38 32 38 59 0 12-4 25-10 34 15 13 23 31 23 50 0 14-3 25-10 36 16 12 26 30 26 52 0 36-29 66-66 66h-175l12 76c0 0 6 35 0 55-6 22-29 83-29 83-14 34-51 50-85 37-34-14-48-42-41-86l5-53-109-183h-20c0 11-8 20-19 20h-211c24 219 211 390 436 390 242 0 438-197 438-438 0-242-196-438-438-438z m-112 337c0 82 67 149 149 149s148-67 148-149c0-82-67-149-148-149-83 0-149 66-149 149z m201 86l-77-182h-23c-7 0-10 3-7 8l76 183h25c7 0 8-4 6-9z m-67-40c0 32-23 51-50 51-28 0-50-19-50-51 0-31 23-51 50-51 27 0 50 20 50 51z m-50-28c-10 0-18 10-18 28 0 19 7 27 16 27 9 0 18-10 18-28 0-18-7-27-16-27z m79-64c0-32 23-51 50-51 28 0 50 19 50 51 0 31-23 51-50 51-28 0-50-20-50-51z m49 26c10 0 18-9 18-28 0-18-7-26-16-26-9 0-18 9-18 28 0 18 7 26 16 26z" horiz-adv-x="1000" />

<glyph glyph-name="congelacuenta" unicode="&#xe804;" d="M707 417h-12v114c0 108-88 195-195 195-107 0-195-87-195-195v-114h-12c-28 0-51-23-51-51v-274c0-28 23-51 51-51h414c28 0 51 23 51 51v274c0 28-23 51-51 51z m-323 114c0 65 53 116 116 116 65 0 116-52 116-116v-114h-232v114z m116-449c-80 0-146 66-146 146 0 81 66 146 146 146 80 0 146-65 146-146 0-80-66-146-146-146z m0 766c-275 0-498-224-498-498 0-275 224-498 498-498 275 0 498 224 498 498 0 275-223 498-498 498z m0-936c-242 0-438 197-438 438 0 242 197 438 438 438 242 0 438-197 438-438 0-242-196-438-438-438z m61 259c-4-21-20-36-44-41-12-3-8-10-8-17 0-9-2-13-11-13-9 0-13 3-11 11 1 11-2 16-14 19-25 5-41 25-44 51-1 7 2 10 9 10 2 0 5 0 7 0 12 1 23 1 26-16 2-12 14-17 28-16 12 1 19 6 23 18 2 11-4 23-16 29-16 8-33 13-47 22-27 19-32 55-11 81 7 8 16 14 25 15 14 2 16 9 15 20-3 12 4 13 13 13 6 0 9-2 9-8 0-3 0-5 0-7-1-11 2-15 13-18 21-4 36-25 38-48 1-9-1-11-10-11-2 0-6 0-10 0-2 0-6 0-8 0-7-1-11 1-12 10-1 9-6 19-19 21-12 3-20-1-25-10-5-11-4-24 6-31 6-5 13-8 21-11 11-4 20-8 30-15 22-13 31-32 27-58z" horiz-adv-x="1000" />

<glyph glyph-name="entrega" unicode="&#xe805;" d="M299 416l-1-33 23 10-22 23z m-2-59l-2-30c11-1 25 0 36 5 12 3 22 11 30 19l-22 22-42-16z m374-153c-38 0-70-31-70-68 0-38 31-68 70-68 37 0 68 30 68 68 0 37-31 68-68 68z m0-104c-20 0-35 16-35 35 0 19 16 34 35 34 19 0 34-16 34-34 0-19-16-35-34-35z m-433 104c-38 0-68-31-68-68 0-38 30-68 68-68 38 0 68 30 68 68 0 37-30 68-68 68z m0-104c-19 0-34 16-34 35 0 19 16 34 34 34 20 0 34-16 34-34 0-19-15-35-34-35z m262 748c-275 0-498-224-498-498 0-275 224-498 498-498 275 0 498 224 498 498 0 275-223 498-498 498z m-95-427c7-10 22-16 34-14 14 3 25 10 34 19l10-26c-17-13-41-24-63-22-22-44-61-78-112-79-45-1-78 35-109 60 21 7 28 14 25 24-4 8-11 10-20 6-6-2-22-9-22-9l33-86-33-12-41 109 77 28c7 3 25 0 32-19 9-22-7-34-12-39 9-6 17-12 25-18 2 31 6 64 8 96l37 13c26-26 53-53 81-79 3 3 4 6 5 10-16 10-27 29-28 47-2 20 11 42 26 52 14 9 35 17 52 19l10-26c-17-1-40-6-50-21-9-8-5-22 1-33z m-273-9l-11 29 305 114 11-30-305-113z m368-500c-169 0-317 96-390 237h38c6 44 44 77 89 77 45 0 83-33 89-77h253c6 44 44 77 89 77s83-33 89-77h77v55h-15v142c0 36-15 58-15 58l-77 112c-10 14-24 26-46 26h-114c-15 0-27-12-27-26v-313h-33v380c0 14-12 26-26 26h-335c80 110 208 181 354 181 242 0 438-198 438-439 0-243-196-439-438-439z m78 467v142h100c21 0 31-13 31-13l91-129v-19h-119l-12 19h-91z" horiz-adv-x="1000" />

<glyph glyph-name="mantenimiento" unicode="&#xe806;" d="M591 473h32v-23h-360v23h32c5 79 21 184 149 184s144-105 147-184z m-146-224c66 0 120 91 133 173h-267c14-82 67-173 134-173z m553 101c0-274-223-498-498-498-274 0-498 223-498 498 0 274 223 498 498 498 275 0 498-223 498-498z m-61 0c0 241-196 438-438 438-241 0-439-196-439-438 0-64 15-127 41-183l190 42v-116h39v124l23 5 29 29 44-46v-1h36v1l44 46 29-29 24-5v-126h38v115l81-18 42-51v172h2c0 0-81 24-81 81 0 57 62 107 62 107h19v-90l42-36 45 36v90h19c0 0 62-47 62-107 0-58-83-83-83-83l-1-270v-1c83 80 132 191 131 314z" horiz-adv-x="1000" />

<glyph glyph-name="sinaval" unicode="&#xe807;" d="M528 438c-10 2-13 7-11 17 1 2 1 5 1 7 0 5-1 7-7 9-10 1-16 1-15-11 2-11-2-17-14-17-11 0-20-6-27-14-22-23-21-57 4-78 13-11 29-17 43-25 13-8 18-19 14-30-4-10-12-15-23-15-14 0-25 6-26 18-2 17-12 18-24 18-3 0-5 0-7 0-8 1-10-1-10-8 0-25 14-47 38-53 12-2 14-8 12-18-2-8 1-11 9-12 10-1 13 2 13 11 0 7-2 14 9 16 23 2 41 17 45 36 7 23-1 44-20 59-9 7-19 12-28 17-6 3-14 7-19 12-7 8-8 21-2 30 5 9 15 11 26 8 12-3 15-13 15-22 2-8 4-10 11-10 3 1 5 0 8 0 2-1 6-1 7-5 9-1 11 1 11 10-1 22-13 44-33 50z m287 56c-107 8-215 17-322 25l-293 22c-15 0-28-10-29-27-3-45-7-91-11-137-3-45-7-91-11-137-2-21 9-34 30-35 148-12 462-38 610-49 22-1 34 10 35 31 6 90 13 181 21 271 1 22-9 35-30 36z m-571-12c0 0-1 0-5 1-1 0-2 0-3 0-3 0-4 0-4 3 0 4-1 8-6 9-4 1-7 1-10-2-2-4-2-9 2-13 2-2 4-3 7-5 3-1 7-3 11-6 8-6 11-13 8-23-2-8-8-13-18-14-5 0-4-4-4-6 0-4-1-5-4-5-4 0-5 1-4 5 1 3 0 6-5 7-9 2-15 11-15 21 0 3 2 3 4 3 1 0 1 0 2 0 5 0 10-1 10-7 0-5 5-7 10-7s8 1 10 6c1 5 0 9-5 12-6 4-12 5-17 10-10 7-10 22-1 30 3 2 7 5 11 5 4 1 6 2 6 7s2 5 6 5c2 0 2-1 2-4 0-1 0-1 0-2-1-4 0-6 4-7 7-3 12-11 12-20 0-3-1-3-4-3z m392-143c-6-77-73-134-151-129-76 6-134 73-127 151 6 77 74 134 151 128 76-6 134-73 127-150z m162-99c-1 0-2 0-3 0-1 0-3 0-4 0-2 0-4 0-4 4s-1 7-6 9c-3 1-7 1-9-3-3-3-3-8 1-12 2-2 5-4 7-5 4-1 7-4 11-6 7-6 10-13 7-23-2-7-8-12-18-13-5 0-4-4-4-7s-1-3-4-3c-4 0-5 1-4 5 0 3 0 6-5 7-10 2-15 11-15 21 0 3 2 3 4 3 1 0 1 0 3 0 4 0 9-1 9-7 0-5 5-7 10-7 5 0 9 1 10 6 1 5 0 10-5 12-6 4-12 5-17 10-10 8-10 22-1 30 3 3 7 5 11 5 4 0 6 1 6 6 0 5 2 5 6 5 2 0 2-1 2-4 0-1 0-1 0-2-1-4 0-6 4-7 7-3 12-11 12-20 0-4-1-5-4-4z m-298 608c-275 0-498-224-498-498 0-275 224-498 498-498 275 0 498 224 498 498 0 275-223 498-498 498z m0-936c-111 0-211 41-289 108l150 150-78 7-114-114c-67 76-109 177-109 288 0 243 198 439 439 439 111 0 210-42 288-109l-151-152 78-6 116 116c67-77 108-178 108-289 0-242-196-438-438-438z" horiz-adv-x="1000" />

<glyph glyph-name="down-dir" unicode="&#xe808;" d="M571 457q0-14-10-25l-250-250q-11-11-25-11t-25 11l-250 250q-11 11-11 25t11 25 25 11h500q14 0 25-11t10-25z" horiz-adv-x="571.4" />

<glyph glyph-name="up-dir" unicode="&#xe809;" d="M571 171q0-14-10-25t-25-10h-500q-15 0-25 10t-11 25 11 26l250 250q10 10 25 10t25-10l250-250q10-11 10-26z" horiz-adv-x="571.4" />

<glyph glyph-name="left-dir" unicode="&#xe80a;" d="M357 600v-500q0-14-10-25t-26-11-25 11l-250 250q-10 11-10 25t10 25l250 250q11 11 25 11t26-11 10-25z" horiz-adv-x="357.1" />

<glyph glyph-name="right-dir" unicode="&#xe80b;" d="M321 350q0-14-10-25l-250-250q-11-11-25-11t-25 11-11 25v500q0 15 11 25t25 11 25-11l250-250q10-10 10-25z" horiz-adv-x="357.1" />

<glyph glyph-name="down-open" unicode="&#xe80c;" d="M939 399l-414-413q-10-11-25-11t-25 11l-414 413q-11 11-11 26t11 25l93 92q10 11 25 11t25-11l296-296 296 296q11 11 25 11t26-11l92-92q11-11 11-25t-11-26z" horiz-adv-x="1000" />

<glyph glyph-name="left-open" unicode="&#xe80d;" d="M654 682l-297-296 297-297q10-10 10-25t-10-25l-93-93q-11-10-25-10t-25 10l-414 415q-11 10-11 25t11 25l414 414q10 11 25 11t25-11l93-93q10-10 10-25t-10-25z" horiz-adv-x="714.3" />

<glyph glyph-name="right-open" unicode="&#xe80e;" d="M618 361l-414-415q-11-10-25-10t-25 10l-93 93q-11 11-11 25t11 25l296 297-296 296q-11 11-11 25t11 25l93 93q10 11 25 11t25-11l414-414q10-11 10-25t-10-25z" horiz-adv-x="714.3" />

<glyph glyph-name="up-open" unicode="&#xe80f;" d="M939 107l-92-92q-11-10-26-10t-25 10l-296 297-296-297q-11-10-25-10t-25 10l-93 92q-11 11-11 26t11 25l414 414q11 10 25 10t25-10l414-414q11-11 11-25t-11-26z" horiz-adv-x="1000" />

<glyph glyph-name="trash" unicode="&#xe810;" d="M0 569l0 68q2 37 29 63t65 25l94 0 0 31q0 39 27 67t66 27l313 0q39 0 66-27t28-67l0-31 93 0q37 0 65-25t29-63l0-68q0-26-19-44t-44-19l0-531q0-53-36-89t-88-36l-500 0q-53 0-89 36t-36 89l0 531q-26 0-44 19t-19 44z m63 0l749 0 0 62q0 14-8 23t-23 8l-687 0q-14 0-23-8t-8-23l0-62z m62-594q0-25 19-44t44-19l500 0q25 0 43 19t19 44l0 531-625 0 0-531z m63 31l0 407q0 13 8 22t23 9l62 0q14 0 23-9t9-22l0-407q0-13-9-22t-23-9l-62 0q-14 0-23 9t-8 22z m31 0l62 0 0 407-62 0 0-407z m31 719l375 0 0 31q0 14-9 23t-22 8l-313 0q-13 0-22-8t-9-23l0-31z m125-719l0 407q0 13 9 22t22 9l63 0q13 0 22-9t9-22l0-407q0-13-9-22t-22-9l-63 0q-13 0-22 9t-9 22z m31 0l63 0 0 407-63 0 0-407z m157 0l0 407q0 13 8 22t23 9l62 0q14 0 23-9t9-22l0-407q0-13-9-22t-23-9l-62 0q-14 0-23 9t-8 22z m31 0l62 0 0 407-62 0 0-407z" horiz-adv-x="875" />

<glyph glyph-name="pencil" unicode="&#xe811;" d="M0-41q0 4 1 8t1 8 1 8 1 6l0 2 74 267q10 31 31 53l325 324 0 2 2 2 150 152q60 59 146 59 106 0 186-80 74-74 81-171t-58-161l-476-481q-24-23-55-31l-263-70-3-1q-3-1-7-2t-9-1-10-1-9-1q-45 0-77 32t-32 77z m63 0q0-19 13-33t33-14q6 0 22 4l115 32q4 58-43 105-45 45-105 43l-32-119q-3-14-3-18z m44 168q67-2 118-52t52-120l116 30 11 6q41 47 34 115t-61 121q-51 49-115 59t-112-24q-7-10-11-21z m131 225q45-2 90-20l295 295q-88 22-144-33z m119-35q38-20 65-45 21-22 41-55l297 299q-16 31-39 55-30 29-67 45z m122-129q17-41 21-82l0-24 242 245 0 2q61 60 31 156z m101 508q106 0 186-80 70-73 78-166l0-22 52 55q45 45 41 111-5 74-62 131-63 62-143 62-60 0-101-41z" horiz-adv-x="1000" />

<glyph glyph-name="spin6" unicode="&#xe839;" d="M855 9c-189-190-520-172-705 13-190 190-200 494-28 695 11 13 21 26 35 34 36 23 85 18 117-13 30-31 35-76 16-112-5-9-9-15-16-22-140-151-145-379-8-516 153-153 407-121 542 34 106 122 142 297 77 451-83 198-305 291-510 222l0 1c236 82 492-24 588-252 71-167 37-355-72-493-11-15-23-29-36-42z" horiz-adv-x="1000" />

<glyph glyph-name="menu" unicode="&#xf0c9;" d="M857 100v-71q0-15-10-25t-26-11h-785q-15 0-25 11t-11 25v71q0 15 11 25t25 11h785q15 0 26-11t10-25z m0 286v-72q0-14-10-25t-26-10h-785q-15 0-25 10t-11 25v72q0 14 11 25t25 10h785q15 0 26-10t10-25z m0 285v-71q0-14-10-25t-26-11h-785q-15 0-25 11t-11 25v71q0 15 11 26t25 10h785q15 0 26-10t10-26z" horiz-adv-x="857.1" />

<glyph glyph-name="credit-card-alt" unicode="&#xf283;" d="M0 11v339h1286v-339q0-37-26-63t-64-27h-1107q-36 0-63 27t-26 63z m357 125v-72h214v72h-214z m-214 0v-72h143v72h-143z m1053 643q37 0 64-27t26-63v-125h-1286v125q0 37 26 63t63 27h1107z" horiz-adv-x="1285.7" />
</font>
</defs>
</svg>
